Coordinates
version=1
nRows=19
nColumns=24
inDegrees=yes

Units are S.I. units (second, meters, Newtons, ...)
Angles are in degrees.

endheader
time	pelvis_tilt	pelvis_list	pelvis_rotation	pelvis_tx	pelvis_ty	pelvis_tz	hip_flexion_r	hip_adduction_r	hip_rotation_r	knee_angle_r	ankle_angle_r	subtalar_angle_r	mtp_angle_r	hip_flexion_l	hip_adduction_l	hip_rotation_l	knee_angle_l	ankle_angle_l	subtalar_angle_l	mtp_angle_l	lumbar_extension	lumbar_bending	lumbar_rotation
      1.28800000	     -1.75946413	     -1.46619777	     -6.66227653	     -0.00853308	      0.95325182	      0.34851170	    -17.35325326	      2.05999331	     -1.45872307	     -9.95439361	     14.26942448	      7.14290650	     11.50300268	     29.57910633	     -2.30555107	     -9.09039551	     -2.17525466	      6.38535501	     -4.16400956	      0.06731183	      0.26805186	      4.82751093	     11.05820868
      1.29216667	     -1.79693662	     -1.33278518	     -6.74455509	     -0.00243768	      0.95258227	      0.34822018	    -17.53404297	      1.82304284	     -1.48542406	    -10.19098132	     14.09109185	      7.10245960	     11.53738401	     29.66296606	     -2.17737298	     -9.09799927	     -2.68475939	      6.30225918	     -4.40106855	      0.07001964	      0.38177506	      4.68407973	     11.09311952
      1.29633333	     -1.85385524	     -1.17904998	     -6.82039618	      0.00368281	      0.95190886	      0.34786272	    -17.64368867	      1.55070030	     -1.64112175	    -10.51731360	     13.83222786	      7.31240498	     12.15037936	     29.70381368	     -2.00413347	     -8.85547321	     -3.08079377	      5.95328880	     -5.07353064	      0.16128129	      0.52256782	      4.49627825	     11.21512535
      1.30050000	     -1.94915959	     -1.03678943	     -6.89248313	      0.00987147	      0.95122825	      0.34755250	    -17.75029275	      1.31524697	     -1.63365490	    -10.77019762	     13.52293507	      7.25405909	     12.25120723	     29.84658001	     -1.86684066	     -8.76782195	     -3.64936312	      5.80345787	     -5.39230968	      0.17718988	      0.72100230	      4.32840301	     11.31862443
      1.30466667	     -2.01836733	     -0.89184154	     -6.96124615	      0.01608418	      0.95061577	      0.34719839	    -17.85251322	      1.06407790	     -1.68995473	    -11.08712027	     13.27606445	      7.27998511	     12.61516008	     29.92097188	     -1.70380320	     -8.53145022	     -4.15063599	      5.46630308	     -6.09036670	      0.24249863	      0.89231573	      4.16961376	     11.46324214
      1.30883333	     -2.12161870	     -0.73673125	     -7.01220140	      0.02237122	      0.95000615	      0.34684007	    -17.92987632	      0.81646103	     -1.72105834	    -11.37220652	     12.90987925	      7.27476798	     12.94769176	     30.04904468	     -1.53479323	     -8.35488867	     -4.70797281	      5.10450568	     -6.59415628	      0.30707785	      1.11760296	      3.99700239	     11.55399321
      1.31300000	     -2.18683703	     -0.53802217	     -7.04911404	      0.02873794	      0.94947081	      0.34642926	    -18.02178456	      0.51353829	     -1.82187007	    -11.71423924	     12.62528034	      7.22506521	     13.61178505	     30.11268641	     -1.30038922	     -8.13311017	     -5.23005575	      4.71162859	     -7.23580098	      0.45047865	      1.31005321	      3.75359961	     11.63444575
      1.31716667	     -2.27400993	     -0.36626336	     -7.10347875	      0.03511623	      0.94897150	      0.34608494	    -18.08331227	      0.24536102	     -1.83396768	    -12.05722903	     12.16435039	      7.11977304	     13.71365228	     30.24177382	     -1.12810089	     -8.10299123	     -5.86257906	      4.36879172	     -7.47902242	      0.46996013	      1.52071692	      3.54485998	     11.67566512
      1.32133333	     -2.36521471	     -0.16359249	     -7.11708364	      0.04154444	      0.94848636	      0.34560738	    -18.12593644	     -0.05426296	     -1.92888277	    -12.42706222	     11.81106319	      7.08616578	     14.41759453	     30.31703090	     -0.86670525	     -7.77305924	     -6.36681966	      3.81353853	     -8.34087266	      0.62758832	      1.74877680	      3.32083885	     11.77873670
      1.32550000	     -2.40261186	      0.05244408	     -7.15095152	      0.04803964	      0.94813782	      0.34517493	    -18.22180861	     -0.38438801	     -2.02269077	    -12.77083294	     11.14108152	      7.11509402	     18.18751477	     30.34932264	     -0.61299453	     -7.64080475	     -6.92116251	      3.30991656	     -8.90712185	      1.50952008	      1.91044292	      3.06764855	     11.78505605
      1.32966667	     -2.59356317	      0.21122791	     -7.15730685	      0.05447543	      0.94762584	      0.34473108	    -18.11904025	     -0.61038547	     -2.00832596	    -13.20916910	     10.68729507	      6.90319476	     18.28063881	     30.60132853	     -0.43380102	     -7.50795380	     -7.59609954	      2.84116056	     -9.27128304	      1.52246787	      2.26178666	      2.90030388	     11.89054678
      1.33383333	     -2.71619308	      0.41719229	     -7.15729238	      0.06098820	      0.94726668	      0.34425096	    -18.08356793	     -0.89726344	     -2.02172681	    -13.63951424	     10.13655573	      6.74274159	     18.43852003	     30.73902842	     -0.18337356	     -7.32846187	     -8.19113380	      2.30619317	     -9.80707220	      1.54782773	      2.52494667	      2.66936520	     11.95059877
      1.33800000	     -2.83549061	      0.63326730	     -7.14411166	      0.06753879	      0.94695737	      0.34374751	    -18.02738970	     -1.19328924	     -2.05693331	    -14.11128912	      9.53660914	      6.59647086	     18.63766710	     30.87516068	      0.08207947	     -7.18313001	     -8.79429655	      1.77149467	    -10.29536762	      1.58003821	      2.81057082	      2.41759494	     11.98970715
      1.34216667	     -2.96512354	      0.86059960	     -7.11821768	      0.07410222	      0.94668546	      0.34321024	    -17.93151210	     -1.49682971	     -2.09537341	    -14.62824839	      8.89444017	      6.43692076	     18.89320344	     31.02337140	      0.36443321	     -7.04312965	     -9.40219292	      1.23823651	    -10.77579986	      1.62046462	      3.10025650	      2.16002216	     12.02240319
      1.34633333	     -3.00938627	      1.13880172	     -7.08379418	      0.08072798	      0.94655720	      0.34261397	    -17.89517475	     -1.88374442	     -2.26502759	    -15.18210824	      8.13735161	      6.40889667	     22.75569652	     31.05790255	      0.71873148	     -6.89856273	     -9.96613060	      0.72563395	    -11.30259446	      2.29050927	      3.29277081	      1.81888837	     12.01079213
      1.35050000	     -3.18526879	      1.34102162	     -7.04520859	      0.08725991	      0.94633579	      0.34205722	    -17.68788033	     -2.14414419	     -2.22628600	    -15.80341019	      7.47379903	      6.08224789	     22.84717982	     31.28081491	      0.96459046	     -6.81587210	    -10.64081740	      0.24718534	    -11.59555654	      2.29408515	      3.63360961	      1.59619000	     12.04762254
      1.35466667	     -3.29673824	      1.58600208	     -6.98216350	      0.09386292	      0.94623536	      0.34146311	    -17.54986828	     -2.45217358	     -2.22527605	    -16.40686428	      6.69006863	      5.86073983	     22.96692303	     31.42280500	      1.27356080	     -6.73741094	    -11.29425675	     -0.20048694	    -11.90964266	      2.30010328	      3.90880616	      1.30783708	     12.05286142
      1.35883333	     -3.42165925	      1.84256372	     -6.92306619	      0.10042483	      0.94617323	      0.34081112	    -17.32421104	     -2.78412949	     -2.25926885	    -17.14009213	      5.91111072	      5.64284172	     23.31547456	     31.55463086	      1.60539772	     -6.59314442	    -11.89800580	     -0.62712691	    -12.33817321	      2.32447838	      4.19189302	      1.01160792	     12.04614574
      1.36300000	     -3.52713108	      2.09274389	     -6.83737394	      0.10702201	      0.94618422	      0.34017135	    -17.13143477	     -3.09146356	     -2.25499756	    -17.83469752	      5.00901664	      5.42723729	     23.53302173	     31.69932844	      1.92151686	     -6.58012148	    -12.58257440	     -1.00065752	    -12.52227883	      2.33511619	      4.46234017	      0.70940499	     12.03152154
